<mxfile host="app.diagrams.net" modified="2024-03-05T05:27:57.042Z" agent="Mozilla/5.0 (Macintosh; Intel Mac OS X 10_15_7) AppleWebKit/537.36 (KHTML, like Gecko) Chrome/121.0.0.0 Safari/537.36" version="24.0.1" etag="OtVdHQfK5Zu-U0kXVDUb" type="github">
  <diagram name="페이지-1" id="z5QjTQFp8d2zQxLmZK_6">
    <mxGraphModel>
      <root>
        <mxCell id="0" />
        <mxCell id="1" parent="0" />
      </root>
    </mxGraphModel>
  </diagram>
</mxfile>
